<svg width="185" height="98" viewBox="0 0 185 98" fill="none" xmlns="http://www.w3.org/2000/svg">
<path d="M18.3061 88.7814C16.2659 89.5704 14.5004 89.8065 13.0097 89.4895C11.519 89.1725 10.1608 88.2598 8.93526 86.7514C7.73398 85.2336 6.56036 82.993 5.41438 80.0298C4.2684 77.0666 3.62913 74.6194 3.49655 72.6883C3.38827 70.7478 3.7789 69.1588 4.66846 67.9212C5.55802 66.6837 7.02291 65.6705 9.06315 64.8814C10.4962 64.3272 11.9146 63.9881 13.3186 63.864L13.8511 66.7572C12.8193 66.905 11.842 67.1573 10.919 67.5143C9.51027 68.0591 8.58327 68.7666 8.13803 69.6368C7.70767 70.4734 7.63017 71.5364 7.90553 72.826C8.18088 74.1156 8.78353 75.9626 9.71346 78.3672C10.6434 80.7718 11.4403 82.5437 12.1043 83.683C12.7683 84.8223 13.5456 85.5687 14.4362 85.9223C15.3417 86.2422 16.511 86.1251 17.944 85.5709C18.9399 85.1858 19.884 84.667 20.7765 84.0147L22.3292 86.5135C21.1773 87.4337 19.8363 88.1896 18.3061 88.7814ZM24.4272 59.2328L31.5144 77.5585C31.7868 78.2629 32.1803 78.7389 32.6949 78.9867C33.2095 79.2344 33.8676 79.2033 34.6691 78.8933C35.2035 78.6866 35.8209 78.406 36.5214 78.0513L37.8754 80.7944C37.0723 81.2446 36.2214 81.6435 35.3227 81.9911C33.501 82.6956 31.9009 82.8537 30.5222 82.4655C29.1678 82.0679 28.129 80.934 27.4057 79.0637L21.4739 63.7255L18.6428 64.5272L17.6142 61.8676L24.4272 59.2328ZM42.278 63.8049L37.6476 65.2606L36.605 62.5645L45.2031 59.2393L51.5154 75.5612L47.4349 77.1393L42.278 63.8049ZM38.5166 55.9199C38.216 55.1427 38.2241 54.4415 38.5408 53.8164C38.8481 53.1671 39.3539 52.7062 40.0583 52.4338C40.7626 52.1614 41.4469 52.162 42.1112 52.4356C42.766 52.685 43.2438 53.1982 43.5443 53.9755C43.8543 54.777 43.851 55.4903 43.5343 56.1154C43.2176 56.7404 42.707 57.1891 42.0027 57.4616C41.2983 57.734 40.6187 57.7455 39.9638 57.4962C39.309 57.2468 38.8266 56.7214 38.5166 55.9199ZM65.1754 55.3266C64.0237 55.3811 62.865 55.6337 61.6991 56.0846C60.7276 56.4604 60.0283 56.9263 59.6011 57.4823C59.1983 58.029 59.0257 58.738 59.0834 59.6091C59.1317 60.456 59.4189 61.5595 59.9449 62.9197C60.4709 64.2799 61.0057 65.3016 61.5491 65.9849C62.0832 66.6439 62.6832 67.0401 63.349 67.1735C64.0392 67.2975 64.87 67.1716 65.8416 66.7959C66.7888 66.4296 67.8161 65.8368 68.9233 65.0177L70.5853 67.4742C69.3777 68.6114 67.9238 69.5087 66.2236 70.1662C63.5761 71.1901 61.4147 71.1604 59.7394 70.0772C58.064 68.994 56.7238 67.153 55.7187 64.5541C54.7136 61.9552 54.4664 59.6915 54.977 57.7629C55.4876 55.8343 57.0666 54.3581 59.7141 53.3342C61.4143 52.6767 63.0936 52.3623 64.7521 52.391L65.1754 55.3266ZM78.5559 56.8949L76.5156 57.6839L79.2772 64.8247L75.1968 66.4028L66.1792 43.0858L70.2597 41.5077L75.3743 54.7328L77.4146 53.9438L78.5559 56.8949ZM82.9111 44.6563L79.1344 55.7916L78.5144 54.1886L89.5149 60.8655L84.5964 62.7676L74.9037 56.5482L77.9927 46.5584L82.9111 44.6563ZM106.93 54.1305C105.538 49.4476 104.511 44.9165 103.851 40.537C103.19 36.1576 102.996 32.226 103.268 28.7423L107.057 27.2769C109.602 29.671 112.104 32.7103 114.562 36.3946C117.02 40.079 119.309 44.1217 121.43 48.5227L117.24 50.1431C115.253 45.9418 113.24 42.1828 111.204 38.866C109.182 35.5155 107.233 32.751 105.358 30.5726L106.742 30.0371C106.82 32.9107 107.227 36.2717 107.961 40.12C108.711 43.9346 109.763 48.0647 111.12 52.5102L106.93 54.1305ZM115.498 40.7651L116.625 43.6798L107.299 47.2868L106.171 44.3721L115.498 40.7651ZM139.493 47.9032C137.789 48.4785 136.277 48.7561 134.957 48.7361C133.646 48.7404 132.472 48.4126 131.435 47.7526C130.432 47.1076 129.553 46.1351 128.799 44.8352L132.187 43.5248C132.557 44.1916 133.016 44.6563 133.564 44.9189C134.137 45.1722 134.808 45.2476 135.578 45.1452C136.358 45.0671 137.291 44.8457 138.379 44.481L138.525 44.4246L139.493 47.9032ZM130.643 45.3787C128.238 46.3086 126.051 45.9957 124.081 44.4401C122.111 42.8844 120.361 40.127 118.83 36.168C117.271 32.1361 116.701 28.8941 117.121 26.4422C117.531 23.966 118.939 22.2629 121.343 21.333C123.797 20.3843 125.991 20.6803 127.927 22.2211C129.854 23.7376 131.606 26.5361 133.184 30.6166C134.734 34.6242 135.311 37.8492 134.916 40.2918C134.52 42.7343 133.096 44.43 130.643 45.3787ZM129.487 42.3912C130.216 42.1094 130.674 41.5972 130.862 40.8546C131.064 40.0783 131.013 39.0089 130.71 37.6465C130.397 36.2597 129.813 34.4612 128.958 32.251C128.094 30.0164 127.311 28.2809 126.61 27.0445C125.908 25.8081 125.226 24.9829 124.563 24.5691C123.916 24.1215 123.227 24.0387 122.499 24.3205C121.77 24.6023 121.305 25.1313 121.102 25.9076C120.915 26.6502 120.978 27.7149 121.29 29.1016C121.603 30.4884 122.192 32.299 123.056 34.5335C123.911 36.7438 124.689 38.4672 125.391 39.7036C126.083 40.9157 126.753 41.7456 127.4 42.1931C128.063 42.607 128.759 42.673 129.487 42.3912ZM135.547 16.2586L142.001 32.9449C142.527 34.305 143.062 35.2566 143.607 35.7997C144.177 36.3334 144.911 36.4265 145.809 36.0789C146.659 35.7501 147.116 35.1968 147.178 34.4189C147.255 33.6073 147.035 32.5336 146.518 31.1977L140.065 14.5115L144.146 12.9334L150.528 29.4375C151.486 31.9149 151.615 33.9452 150.915 35.5282C150.23 37.0776 148.904 38.2327 146.936 38.9935C144.969 39.7544 143.199 39.7969 141.625 39.1211C140.066 38.4117 138.808 36.8182 137.85 34.3408L131.467 17.8367L135.547 16.2586ZM155.63 32.4485L159.978 30.2642L153.215 12.7764L148.674 14.03L147.716 11.5526L160.54 6.59294L161.498 9.07038L157.296 11.1984L164.059 28.6861L168.745 27.3762L169.704 29.8536L156.588 34.926L155.63 32.4485ZM168.046 3.69042L172.855 1.83055L178.302 17.6493L174.659 19.0582L168.046 3.69042ZM179.609 26.4418C178.734 26.78 177.916 26.8311 177.155 26.595C176.384 26.3347 175.834 25.7795 175.505 24.9294C175.186 24.1036 175.224 23.335 175.619 22.6238C176.014 21.9126 176.649 21.3879 177.523 21.0498C178.398 20.7116 179.22 20.6727 179.991 20.933C180.762 21.1934 181.307 21.7365 181.626 22.5623C181.955 23.4124 181.922 24.193 181.527 24.9042C181.122 25.5912 180.483 26.1037 179.609 26.4418Z" fill="white"/>
</svg>
